<svg width="580" height="192" viewBox="0 0 580 192" fill="none" xmlns="http://www.w3.org/2000/svg">
<path d="M197.759 53.4902C170.88 53.5374 150.237 74.2948 150.311 101.201C150.385 127.987 171.189 148.562 198.184 148.495C225.029 148.434 245.78 127.582 245.672 100.777C245.565 73.9715 224.767 53.4363 197.759 53.4902ZM208.36 127.475C198.298 131.954 188.781 130.169 180.517 122.962C169.815 113.614 168.051 95.6583 176.416 83.6295C178.715 80.2591 181.773 77.4749 185.344 75.5006C188.915 73.5264 192.899 72.417 196.976 72.2618C201.054 72.1066 205.11 72.9097 208.821 74.6068C212.531 76.3038 215.792 78.8475 218.342 82.0333C222.537 87.1789 224.72 93.6985 224.713 103.303C224.315 113.015 219.601 122.464 208.36 127.475Z" fill="#DB4437"/>
<path d="M301.553 53.4566C274.498 53.497 253.734 74.2544 253.808 101.275C253.862 127.939 274.774 148.542 301.742 148.508C328.486 148.475 349.257 127.818 349.284 101.255C349.304 74.1736 328.574 53.4229 301.553 53.4566ZM298.105 129.482C287.928 128.344 279.247 120.592 276.074 109.849C272.033 96.1366 277.758 81.3127 289.39 75.2983C306.268 66.5428 326.089 77.7027 328.082 97.0525C328.217 98.3995 328.244 99.7465 328.264 100.124C328.257 118.699 314.808 131.354 298.105 129.482Z" fill="#F4B400"/>
<path d="M516.65 115.318C537.63 106.63 558.623 97.9349 580 89.0917C578.357 85.3201 577.084 81.9593 575.481 78.7602C563.412 54.7969 537.455 46.3309 515.02 59.4036C500.304 67.9841 493.738 81.6832 492.795 98.2918C490.835 134.217 525.008 158.564 558.037 144.804C566.712 141.187 573.528 135.234 578.983 127.434L562.819 116.726C549.524 136.459 523.089 131.98 516.65 115.318ZM531.939 72.7323C541.435 70.0383 551.248 73.7964 555.228 81.9593L513.114 99.4704C512.07 87.4686 520.287 76.0325 531.939 72.7323Z" fill="#DB4437"/>
<path d="M142.673 67.9908H138.834C119.195 67.9908 99.5555 67.9908 79.9161 67.9908C78.6903 67.9908 77.4713 68.1457 76.2455 68.2265H75.572C75.3834 68.3343 75.0399 68.4353 75.0399 68.5498C74.9524 74.7326 74.8716 80.9221 74.9187 87.1116C74.9187 87.4012 76.1175 87.6773 76.7574 87.9602C77.5296 88.0787 78.3074 88.1574 79.0877 88.196C93.6354 88.196 108.188 88.196 122.744 88.196C121.721 100.993 116.211 111.243 105.812 118.941C84.2131 134.944 42.3278 132.203 26.8642 96.938C17.8998 76.4972 20.513 56.75 35.054 39.5891C49.3862 22.664 71.76 16.7573 92.1268 24.1861C98.9426 26.6713 105.092 30.9615 111.133 34.2078L125.317 20.9196C125.317 20.9196 124.293 20.1585 123.896 19.7881C98.0064 -4.20214 58.2495 -5.62997 29.181 16.4206C-5.7402 42.9364 -10.0237 93.0452 20.1493 124.814C37.9164 143.518 60.0343 150.872 85.4793 148.044C113.699 144.905 135.682 125.468 141.879 98.6218C144.25 88.5751 144.52 78.1469 142.673 67.9908Z" fill="#4285F4"/>
<path d="M448.559 56.5952H428.967C428.859 58.9928 428.765 61.2423 428.643 63.9094L424.508 60.7709L419.793 57.6189C410.93 52.6821 401.562 52.3655 392.065 55.0393C373.955 60.131 359.973 76.3895 358.1 94.9782C356.019 115.567 363.866 131.677 381.552 142.507C395.999 151.351 415.759 151.074 427.889 138.466C427.99 138.365 428.286 138.466 428.563 138.466C428.563 142.373 428.899 146.292 428.502 150.131C427.323 161.426 421.289 168.74 411.348 171.441C400.74 174.324 390.146 170.875 383.687 162.308C382.145 160.288 380.905 158.005 379.376 155.573L361.569 162.982C371.604 187.053 397.871 197.034 421.787 187.902L432.94 181.456C432.975 181.465 433.011 181.467 433.046 181.461C433.081 181.455 433.115 181.442 433.145 181.422C433.175 181.402 433.2 181.377 433.219 181.346C433.239 181.316 433.251 181.283 433.257 181.247L433.876 180.675L434.55 180.001L436.826 177.624L436.793 177.543C438.503 175.368 440.49 173.354 441.864 170.983C446.828 162.423 448.68 153.021 448.687 143.208C448.687 115.163 448.687 87.1161 448.687 59.0669C448.707 58.3261 448.619 57.5583 448.559 56.5952ZM427.721 114.092C423.154 125.111 413.287 130.768 401.71 129.536C391.055 128.404 381.774 119.601 379.37 108.226C378.865 105.835 378.696 103.363 378.514 101.774C378.912 90.5196 382.677 81.8987 391.648 76.147C394.301 74.397 397.276 73.1921 400.399 72.6026C403.523 72.0131 406.732 72.0507 409.841 72.7132C412.95 73.3757 415.896 74.6499 418.507 76.4615C421.119 78.2732 423.344 80.5862 425.054 83.2659C431.351 92.9913 432.125 103.458 427.721 114.092Z" fill="#4285F4"/>
<path d="M462.783 5.95428V145.491H483.325V5.95428H462.783Z" fill="#0F9D58"/>
</svg>
